<svg width="10" height="17" viewBox="0 0 10 17" fill="none" xmlns="http://www.w3.org/2000/svg">
<path d="M9.91383 1.41383C9.91383 1.5501 9.84569 1.70341 9.74349 1.80561L3.0491 8.5L9.74349 15.1944C9.84569 15.2966 9.91383 15.4499 9.91383 15.5862C9.91383 15.7224 9.84569 15.8758 9.74349 15.978L8.89178 16.8297C8.78958 16.9319 8.63627 17 8.5 17C8.36373 17 8.21042 16.9319 8.10822 16.8297L0.170341 8.89178C0.0681363 8.78958 0 8.63627 0 8.5C0 8.36373 0.0681363 8.21042 0.170341 8.10822L8.10822 0.170341C8.21042 0.0681363 8.36373 0 8.5 0C8.63627 0 8.78958 0.0681363 8.89178 0.170341L9.74349 1.02204C9.84569 1.12425 9.91383 1.26052 9.91383 1.41383Z" fill="#63D9F3"/>
</svg>
