<svg width="11" height="11" viewBox="0 0 11 11" fill="none" xmlns="http://www.w3.org/2000/svg">
<path d="M0.785714 10.2143H2.55357V8.44643H0.785714V10.2143ZM2.94643 10.2143H4.91071V8.44643H2.94643V10.2143ZM0.785714 8.05357H2.55357V6.08929H0.785714V8.05357ZM2.94643 8.05357H4.91071V6.08929H2.94643V8.05357ZM0.785714 5.69643H2.55357V3.92857H0.785714V5.69643ZM5.30357 10.2143H7.26786V8.44643H5.30357V10.2143ZM2.94643 5.69643H4.91071V3.92857H2.94643V5.69643ZM7.66071 10.2143H9.42857V8.44643H7.66071V10.2143ZM5.30357 8.05357H7.26786V6.08929H5.30357V8.05357ZM3.14286 2.75V0.982143C3.14286 0.87779 3.05078 0.785714 2.94643 0.785714H2.55357C2.44922 0.785714 2.35714 0.87779 2.35714 0.982143V2.75C2.35714 2.85435 2.44922 2.94643 2.55357 2.94643H2.94643C3.05078 2.94643 3.14286 2.85435 3.14286 2.75ZM7.66071 8.05357H9.42857V6.08929H7.66071V8.05357ZM5.30357 5.69643H7.26786V3.92857H5.30357V5.69643ZM7.66071 5.69643H9.42857V3.92857H7.66071V5.69643ZM7.85714 2.75V0.982143C7.85714 0.87779 7.76507 0.785714 7.66071 0.785714H7.26786C7.1635 0.785714 7.07143 0.87779 7.07143 0.982143V2.75C7.07143 2.85435 7.1635 2.94643 7.26786 2.94643H7.66071C7.76507 2.94643 7.85714 2.85435 7.85714 2.75ZM10.2143 2.35714V10.2143C10.2143 10.644 9.85826 11 9.42857 11H0.785714C0.356027 11 0 10.644 0 10.2143V2.35714C0 1.92746 0.356027 1.57143 0.785714 1.57143H1.57143V0.982143C1.57143 0.441964 2.01339 0 2.55357 0H2.94643C3.48661 0 3.92857 0.441964 3.92857 0.982143V1.57143H6.28571V0.982143C6.28571 0.441964 6.72768 0 7.26786 0H7.66071C8.20089 0 8.64286 0.441964 8.64286 0.982143V1.57143H9.42857C9.85826 1.57143 10.2143 1.92746 10.2143 2.35714Z" fill="white" fill-opacity="0.8"/>
</svg>
