<svg width="11" height="11" viewBox="0 0 11 11" fill="none" xmlns="http://www.w3.org/2000/svg">
<path d="M6.41667 2.97917V6.1875C6.41667 6.31641 6.31641 6.41667 6.1875 6.41667H3.89583C3.76693 6.41667 3.66667 6.31641 3.66667 6.1875V5.72917C3.66667 5.60026 3.76693 5.5 3.89583 5.5H5.5V2.97917C5.5 2.85026 5.60026 2.75 5.72917 2.75H6.1875C6.31641 2.75 6.41667 2.85026 6.41667 2.97917ZM9.39583 5.5C9.39583 3.35156 7.64844 1.60417 5.5 1.60417C3.35156 1.60417 1.60417 3.35156 1.60417 5.5C1.60417 7.64844 3.35156 9.39583 5.5 9.39583C7.64844 9.39583 9.39583 7.64844 9.39583 5.5ZM11 5.5C11 8.53646 8.53646 11 5.5 11C2.46354 11 0 8.53646 0 5.5C0 2.46354 2.46354 0 5.5 0C8.53646 0 11 2.46354 11 5.5Z" fill="white" fill-opacity="0.8"/>
</svg>
