<svg width="10" height="10" viewBox="0 0 10 10" fill="none" xmlns="http://www.w3.org/2000/svg">
<path d="M9.56869 4.13194V5.43676C9.56869 5.79694 9.27647 6.08917 8.91628 6.08917H6.08917V8.91628C6.08917 9.27647 5.79694 9.56869 5.43676 9.56869H4.13194C3.77175 9.56869 3.47952 9.27647 3.47952 8.91628V6.08917H0.652411C0.292226 6.08917 0 5.79694 0 5.43676V4.13194C0 3.77175 0.292226 3.47952 0.652411 3.47952H3.47952V0.652411C3.47952 0.292226 3.77175 0 4.13194 0H5.43676C5.79694 0 6.08917 0.292226 6.08917 0.652411V3.47952H8.91628C9.27647 3.47952 9.56869 3.77175 9.56869 4.13194Z" fill="black"/>
</svg>
